<svg width="600" height="300" viewBox="0 0 600 300" fill="none" xmlns="http://www.w3.org/2000/svg">
<rect width="600" height="300" fill="#171717"/>
<path d="M282.771 97.8215C282.503 97.8393 282.233 97.8877 281.968 97.9387C281.435 98.0432 280.91 98.1987 280.387 98.4382C279.864 98.6803 279.354 98.9963 278.844 99.3735C278.334 99.7507 277.84 100.204 277.343 100.717L277.065 101.007C276.907 101.15 276.748 101.287 276.59 101.443C276.131 101.886 275.721 102.332 275.339 102.773L164.742 216.743C164.245 217.255 163.801 217.765 163.437 218.285C163.075 218.805 162.779 219.325 162.555 219.852C162.33 220.38 162.17 220.922 162.08 221.458C161.991 221.993 161.981 222.533 162.027 223.078C162.073 223.624 162.187 224.159 162.368 224.712C162.552 225.262 162.802 225.823 163.121 226.384C163.434 226.947 163.822 227.492 164.281 228.056C164.737 228.619 165.257 229.207 165.849 229.781C166.45 230.364 167.065 230.872 167.654 231.323C168.243 231.769 168.814 232.161 169.393 232.47C169.969 232.778 170.543 233.007 171.106 233.181C171.67 233.354 172.228 233.474 172.779 233.509C173.329 233.545 173.875 233.507 174.413 233.405C174.951 233.303 175.471 233.13 175.994 232.89C176.519 232.65 177.037 232.345 177.549 231.967C178.059 231.59 178.566 231.149 179.064 230.637L283.574 122.949L354.197 194.222C354.699 194.729 355.201 195.175 355.711 195.552C356.224 195.93 356.741 196.235 357.267 196.475C357.789 196.715 358.325 196.901 358.86 197.003C359.398 197.105 359.944 197.13 360.494 197.094C361.045 197.059 361.591 196.939 362.154 196.766C362.718 196.592 363.291 196.363 363.868 196.055C364.446 195.746 365.018 195.369 365.607 194.923C366.195 194.474 366.81 193.955 367.412 193.368C368.003 192.795 368.523 192.222 368.98 191.656C369.439 191.093 369.824 190.535 370.14 189.971C370.458 189.411 370.708 188.85 370.892 188.3C371.076 187.749 371.2 187.211 371.249 186.666C371.295 186.123 371.272 185.583 371.183 185.045C371.093 184.51 370.933 183.98 370.708 183.452C370.484 182.925 370.188 182.392 369.826 181.872C369.464 181.352 369.038 180.84 368.536 180.331L290.695 101.749C290.593 101.647 290.512 101.547 290.404 101.445C290.356 101.4 290.308 101.371 290.259 101.328L289.665 100.722C289.163 100.214 288.66 99.7558 288.151 99.3786C287.641 99.0014 287.131 98.6854 286.608 98.4433C286.085 98.2012 285.56 98.0483 285.027 97.9438C284.55 97.8495 284.076 97.8113 283.592 97.8266C283.536 97.824 283.477 97.8291 283.421 97.8266C283.207 97.8189 282.982 97.8062 282.771 97.8215Z" fill="#9747FF"/>
<path d="M216.861 120.233L214.022 118.934C207.656 116.019 200.131 118.815 197.215 125.178L195.915 128.016C192.999 134.38 195.796 141.901 202.162 144.815L205.001 146.115C211.368 149.03 218.892 146.234 221.808 139.87L223.109 137.033C226.024 130.669 223.227 123.148 216.861 120.233Z" fill="#9747FF"/>
<path d="M209.338 104.109L212.604 106.572C219.893 112.067 230.258 110.616 235.756 103.331L238.208 100.082C243.706 92.7971 242.255 82.4363 234.966 76.9409L231.7 74.4783C224.412 68.9828 214.046 70.4336 208.548 77.7188L206.096 80.9676C200.598 88.2528 202.05 98.6135 209.338 104.109Z" fill="#9747FF"/>
<path d="M278.002 74.1858L282.674 70.511C293.15 62.2707 294.96 47.1018 286.716 36.6303L283.039 31.9604C274.795 21.4889 259.619 19.68 249.143 27.9203L244.471 31.5951C233.994 39.8353 232.185 55.0042 240.429 65.4758L244.105 70.1456C252.349 80.6172 267.525 82.426 278.002 74.1858Z" fill="#9747FF"/>
<path d="M209.409 156.147C210.207 156.147 210.967 156.188 211.665 156.277C212.364 156.367 213.01 156.505 213.609 156.684C214.208 156.864 214.752 157.086 215.251 157.355C215.751 157.624 216.207 157.944 216.605 158.302C217.006 158.661 217.36 159.063 217.658 159.513C217.957 159.961 218.199 160.448 218.398 160.985C218.597 161.523 218.75 162.107 218.85 162.734C218.949 163.361 219 164.04 219 164.759V267.524C219 268.243 218.949 268.922 218.85 269.549C218.75 270.176 218.597 270.76 218.398 271.298C218.199 271.835 217.959 272.335 217.658 272.783C217.36 273.231 217.006 273.633 216.605 273.991C216.205 274.349 215.751 274.657 215.251 274.926C214.752 275.194 214.208 275.43 213.609 275.609C213.01 275.791 212.364 275.914 211.665 276.003C210.967 276.09 210.207 276.147 209.409 276.147C208.625 276.147 207.888 276.09 207.201 276.003C206.514 275.916 205.884 275.796 205.294 275.609C204.705 275.427 204.166 275.194 203.676 274.926C203.186 274.657 202.739 274.352 202.346 273.991C201.953 273.633 201.613 273.231 201.317 272.783C201.024 272.335 200.774 271.835 200.577 271.298C200.381 270.76 200.238 270.176 200.138 269.549C200.041 268.922 200 268.241 200 267.524V164.759C200 164.04 200.039 163.361 200.138 162.734C200.235 162.107 200.381 161.523 200.577 160.985C200.774 160.448 201.024 159.961 201.317 159.513C201.611 159.065 201.953 158.663 202.346 158.302C202.739 157.944 203.186 157.624 203.676 157.355C204.166 157.086 204.705 156.864 205.294 156.684C205.884 156.505 206.514 156.367 207.201 156.277C207.888 156.188 208.623 156.147 209.409 156.147Z" fill="white"/>
<path d="M268.934 166.147C268.135 166.147 267.335 166.18 266.538 166.252C265.738 166.324 264.938 166.439 264.141 166.583C263.342 166.726 262.542 166.898 261.745 167.113C260.945 167.329 260.146 167.583 259.348 167.87C258.549 168.157 257.749 168.48 256.952 168.836C256.152 169.195 255.353 169.585 254.556 170.016C253.756 170.447 252.956 170.918 252.159 171.421C251.359 171.924 250.573 172.452 249.775 173.023C248.932 173.595 248.135 174.211 247.405 174.864C246.674 175.521 245.995 176.218 245.377 176.957C244.76 177.695 244.201 178.48 243.696 179.303C243.191 180.123 242.75 180.982 242.358 181.887C241.966 182.792 241.62 183.736 241.325 184.723C241.03 185.71 240.792 186.741 240.597 187.81C240.402 188.88 240.246 189.995 240.146 191.149C240.049 192.303 240 193.502 240 194.738V267.455C240 268.178 240.056 268.862 240.159 269.496C240.261 270.129 240.415 270.716 240.623 271.257C240.83 271.801 241.094 272.303 241.405 272.754C241.715 273.206 242.076 273.611 242.491 273.972C242.906 274.334 243.378 274.642 243.896 274.913C244.414 275.185 244.983 275.421 245.605 275.603C246.228 275.785 246.895 275.911 247.617 276.001C248.343 276.09 249.119 276.147 249.95 276.147C250.778 276.147 251.557 276.09 252.282 276.001C253.007 275.911 253.687 275.785 254.309 275.603C254.932 275.421 255.501 275.185 256.019 274.913C256.537 274.642 256.996 274.334 257.411 273.972C257.826 273.611 258.2 273.206 258.51 272.754C258.82 272.303 259.072 271.801 259.279 271.257C259.487 270.714 259.638 270.129 259.743 269.496C259.846 268.862 259.902 268.178 259.902 267.455V199.418C259.902 198.574 259.956 197.759 260.061 196.967C260.166 196.174 260.328 195.413 260.538 194.674C260.748 193.936 261.017 193.228 261.332 192.541C261.647 191.854 262.009 191.187 262.432 190.554C262.627 190.192 262.86 189.864 263.108 189.546C263.357 189.231 263.629 188.931 263.929 188.659C264.231 188.387 264.554 188.144 264.908 187.918C265.261 187.692 265.641 187.49 266.046 187.308C266.453 187.126 266.897 186.967 267.358 186.831C267.817 186.695 268.304 186.577 268.814 186.487C269.326 186.398 269.865 186.333 270.428 186.29C270.992 186.244 271.584 186.223 272.202 186.223H294.798C295.4 186.223 295.982 186.244 296.533 186.29C297.084 186.336 297.607 186.398 298.109 186.487C298.612 186.577 299.088 186.695 299.54 186.831C299.991 186.967 300.411 187.126 300.811 187.308C301.211 187.49 301.587 187.692 301.936 187.918C302.285 188.144 302.605 188.39 302.902 188.659C303.2 188.931 303.476 189.231 303.722 189.546C303.968 189.862 304.189 190.192 304.384 190.554L304.199 190.382C304.681 191.105 305.109 191.831 305.47 192.569C305.832 193.308 306.129 194.054 306.37 194.808C306.611 195.561 306.793 196.331 306.913 197.1C307.034 197.869 307.098 198.636 307.098 199.418V267.455C307.098 268.178 307.139 268.862 307.244 269.496C307.347 270.129 307.513 270.716 307.721 271.257C307.928 271.801 308.177 272.303 308.49 272.754C308.8 273.206 309.161 273.611 309.576 273.972C309.992 274.334 310.463 274.642 310.981 274.913C311.499 275.185 312.068 275.421 312.691 275.603C313.313 275.785 313.993 275.911 314.718 276.001C315.443 276.09 316.22 276.147 317.05 276.147C317.878 276.147 318.657 276.09 319.383 276.001C320.108 275.911 320.774 275.785 321.395 275.603C322.017 275.421 322.586 275.185 323.104 274.913C323.622 274.642 324.094 274.334 324.509 273.972C324.924 273.611 325.283 273.206 325.595 272.754C325.906 272.303 326.17 271.801 326.377 271.257C326.585 270.714 326.736 270.129 326.841 269.496C326.944 268.862 327 268.178 327 267.455V194.738C327 193.502 326.944 192.3 326.841 191.149C326.739 189.995 326.582 188.88 326.377 187.81C326.175 186.741 325.929 185.71 325.621 184.723C325.316 183.736 324.955 182.792 324.547 181.887C324.14 180.982 323.691 180.126 323.184 179.303C322.676 178.482 322.112 177.695 321.502 176.957C320.892 176.218 320.228 175.518 319.516 174.864C318.803 174.208 318.037 173.595 317.225 173.023C316.397 172.452 315.569 171.921 314.749 171.421C313.928 170.921 313.111 170.447 312.298 170.016C311.486 169.585 310.681 169.195 309.874 168.836C309.066 168.477 308.262 168.154 307.462 167.87C306.662 167.583 305.87 167.329 305.078 167.113C304.286 166.898 303.505 166.726 302.72 166.583C301.936 166.439 301.152 166.324 300.375 166.252C299.598 166.18 298.827 166.147 298.058 166.147H268.934Z" fill="white"/>
<path d="M361.953 130.147C361.125 130.147 360.346 130.188 359.62 130.28C358.895 130.37 358.216 130.511 357.593 130.691C356.97 130.873 356.401 131.097 355.883 131.369C355.365 131.641 354.907 131.962 354.491 132.324C354.076 132.686 353.702 133.091 353.392 133.543C353.082 133.995 352.83 134.498 352.623 135.042C352.415 135.587 352.264 136.172 352.159 136.806C352.056 137.44 352 138.11 352 138.837V267.444C352 268.168 352.056 268.853 352.159 269.487C352.261 270.121 352.415 270.709 352.623 271.251C352.83 271.795 353.079 272.298 353.392 272.75C353.702 273.202 354.076 273.608 354.491 273.97C354.907 274.332 355.363 274.64 355.883 274.912C356.401 275.184 356.97 275.42 357.593 275.602C358.216 275.785 358.895 275.911 359.62 276C360.346 276.09 361.122 276.147 361.953 276.147C362.781 276.147 363.56 276.09 364.285 276C365.011 275.911 365.677 275.785 366.298 275.602C366.92 275.42 367.489 275.184 368.007 274.912C368.525 274.64 368.997 274.332 369.412 273.97C369.827 273.608 370.186 273.202 370.499 272.75C370.809 272.298 371.073 271.795 371.28 271.251C371.488 270.707 371.639 270.121 371.744 269.487C371.847 268.853 371.903 268.168 371.903 267.444V186.105L406.806 186.108C407.409 186.108 407.99 186.128 408.542 186.175C409.093 186.221 409.618 186.282 410.118 186.372C410.62 186.462 411.097 186.58 411.548 186.716C411.999 186.852 412.42 187.012 412.82 187.194C413.219 187.376 413.583 187.579 413.932 187.805C414.281 188.031 414.614 188.277 414.911 188.547C415.208 188.819 415.472 189.119 415.719 189.435C415.965 189.751 416.185 190.082 416.38 190.444L416.208 190.272C416.69 190.996 417.105 191.722 417.467 192.462C417.828 193.201 418.138 193.948 418.382 194.703C418.623 195.458 418.805 196.228 418.925 196.998C419.046 197.768 419.097 198.536 419.097 199.319V267.441C419.097 268.165 419.153 268.851 419.256 269.485C419.358 270.119 419.512 270.707 419.72 271.248C419.927 271.793 420.191 272.296 420.501 272.748C420.812 273.199 421.173 273.605 421.588 273.967C422.003 274.329 422.475 274.637 422.993 274.909C423.511 275.181 424.08 275.418 424.703 275.6C425.325 275.782 425.992 275.908 426.715 275.998C427.44 276.088 428.217 276.144 429.047 276.144C429.875 276.144 430.652 276.088 431.38 275.998C432.105 275.908 432.784 275.782 433.407 275.6C434.03 275.418 434.596 275.181 435.117 274.909C435.635 274.637 436.093 274.329 436.509 273.967C436.924 273.605 437.283 273.199 437.595 272.748C437.906 272.296 438.17 271.793 438.377 271.248C438.585 270.704 438.736 270.119 438.841 269.485C438.944 268.851 439 268.165 439 267.441V194.634C439 193.396 438.956 192.192 438.854 191.04C438.751 189.884 438.595 188.768 438.39 187.697C438.187 186.626 437.926 185.594 437.621 184.606C437.316 183.618 436.967 182.673 436.562 181.767C436.155 180.86 435.693 180.003 435.186 179.179C434.678 178.357 434.115 177.569 433.505 176.83C432.894 176.09 432.243 175.39 431.531 174.735C430.818 174.078 430.054 173.464 429.239 172.892C428.411 172.319 427.584 171.788 426.763 171.287C425.943 170.784 425.125 170.311 424.313 169.88C423.498 169.449 422.683 169.059 421.875 168.699C421.068 168.34 420.276 168.016 419.479 167.731C418.679 167.444 417.872 167.19 417.082 166.974C416.29 166.758 415.508 166.586 414.724 166.443C413.94 166.299 413.155 166.183 412.379 166.111C411.602 166.04 410.843 166.006 410.074 166.006H371.913V138.837C371.913 138.113 371.857 137.44 371.755 136.806C371.652 136.172 371.498 135.584 371.291 135.042C371.083 134.498 370.819 133.995 370.509 133.543C370.199 133.091 369.837 132.686 369.422 132.324C369.007 131.962 368.535 131.641 368.017 131.369C367.5 131.097 366.931 130.873 366.308 130.691C365.685 130.509 365.018 130.37 364.296 130.28C363.57 130.19 362.781 130.147 361.953 130.147Z" fill="white"/>
</svg>
