<svg width="830" height="300" viewBox="0 0 830 300" fill="none" xmlns="http://www.w3.org/2000/svg">
<rect width="830" height="300" fill="#161B22"/>
<path d="M399.691 104.635C399.452 104.651 399.211 104.694 398.975 104.74C398.5 104.833 398.031 104.971 397.565 105.185C397.099 105.401 396.644 105.683 396.19 106.019C395.735 106.355 395.294 106.76 394.851 107.217L394.603 107.476C394.462 107.603 394.321 107.726 394.18 107.864C393.771 108.26 393.405 108.657 393.064 109.05L294.445 210.677C294.002 211.134 293.606 211.588 293.281 212.052C292.958 212.515 292.695 212.979 292.494 213.449C292.294 213.92 292.151 214.404 292.072 214.881C291.992 215.358 291.983 215.84 292.024 216.326C292.065 216.813 292.167 217.29 292.329 217.783C292.492 218.274 292.715 218.774 292.999 219.274C293.279 219.776 293.624 220.262 294.034 220.764C294.441 221.267 294.904 221.792 295.432 222.303C295.968 222.823 296.516 223.275 297.042 223.678C297.567 224.075 298.076 224.425 298.592 224.7C299.106 224.975 299.617 225.18 300.12 225.334C300.622 225.489 301.12 225.596 301.611 225.627C302.102 225.659 302.589 225.625 303.069 225.534C303.548 225.443 304.012 225.289 304.478 225.075C304.947 224.862 305.408 224.589 305.865 224.253C306.32 223.916 306.772 223.523 307.216 223.066L400.407 127.041L463.381 190.595C463.829 191.047 464.277 191.445 464.732 191.781C465.189 192.118 465.65 192.39 466.119 192.604C466.585 192.818 467.062 192.984 467.54 193.074C468.019 193.165 468.506 193.188 468.997 193.156C469.488 193.124 469.974 193.018 470.477 192.863C470.979 192.709 471.491 192.504 472.005 192.229C472.521 191.954 473.03 191.618 473.555 191.22C474.08 190.82 474.628 190.357 475.165 189.834C475.692 189.323 476.156 188.811 476.563 188.307C476.972 187.805 477.316 187.307 477.598 186.805C477.882 186.305 478.105 185.805 478.268 185.314C478.432 184.823 478.543 184.344 478.587 183.857C478.627 183.373 478.607 182.892 478.527 182.412C478.448 181.935 478.305 181.462 478.105 180.992C477.905 180.521 477.641 180.047 477.318 179.583C476.995 179.119 476.615 178.663 476.168 178.208L406.757 108.137C406.666 108.046 406.593 107.957 406.498 107.866C406.455 107.826 406.411 107.801 406.368 107.762L405.839 107.221C405.391 106.769 404.943 106.36 404.488 106.024C404.033 105.687 403.579 105.405 403.113 105.19C402.646 104.974 402.178 104.837 401.703 104.744C401.278 104.66 400.855 104.626 400.423 104.64C400.373 104.637 400.321 104.642 400.271 104.64C400.08 104.633 399.88 104.621 399.691 104.635Z" fill="#9747FF"/>
<path d="M340.919 124.62L338.388 123.461C332.711 120.862 326.001 123.355 323.401 129.029L322.241 131.559C319.641 137.234 322.136 143.94 327.812 146.539L330.344 147.698C336.021 150.297 342.731 147.804 345.331 142.13L346.49 139.599C349.09 133.925 346.596 127.219 340.919 124.62Z" fill="#9747FF"/>
<path d="M334.211 110.242L337.123 112.437C343.622 117.338 352.865 116.044 357.768 109.548L359.954 106.651C364.857 100.155 363.563 90.9161 357.064 86.0158L354.151 83.82C347.652 78.9197 338.409 80.2134 333.506 86.7095L331.32 89.6065C326.418 96.1026 327.712 105.341 334.211 110.242Z" fill="#9747FF"/>
<path d="M395.438 83.5591L399.604 80.2823C408.946 72.9345 410.56 59.4085 403.208 50.071L399.93 45.9069C392.579 36.5695 379.046 34.9566 369.705 42.3044L365.539 45.5812C356.197 52.929 354.583 66.4551 361.934 75.7925L365.213 79.9566C372.564 89.294 386.096 90.9069 395.438 83.5591Z" fill="#9747FF"/>
<path d="M334.419 157C335.133 157 335.812 157.037 336.437 157.116C337.063 157.196 337.64 157.32 338.176 157.479C338.713 157.639 339.199 157.838 339.646 158.077C340.093 158.317 340.501 158.603 340.857 158.922C341.216 159.242 341.532 159.6 341.8 160.002C342.067 160.401 342.284 160.835 342.462 161.315C342.64 161.794 342.776 162.314 342.865 162.874C342.954 163.433 343 164.038 343 164.679V256.311C343 256.953 342.954 257.558 342.865 258.117C342.776 258.676 342.64 259.197 342.462 259.676C342.284 260.156 342.069 260.601 341.8 261C341.532 261.4 341.216 261.758 340.857 262.078C340.499 262.397 340.093 262.671 339.646 262.911C339.199 263.151 338.713 263.361 338.176 263.521C337.64 263.683 337.063 263.792 336.437 263.872C335.812 263.95 335.133 264 334.419 264C333.717 264 333.057 263.95 332.443 263.872C331.829 263.795 331.264 263.687 330.737 263.521C330.209 263.359 329.727 263.151 329.289 262.911C328.85 262.671 328.451 262.4 328.099 262.078C327.748 261.758 327.444 261.4 327.179 261C326.916 260.601 326.693 260.156 326.517 259.676C326.341 259.197 326.213 258.676 326.124 258.117C326.037 257.558 326 256.951 326 256.311V164.679C326 164.038 326.035 163.433 326.124 162.874C326.211 162.314 326.341 161.794 326.517 161.315C326.693 160.835 326.916 160.401 327.179 160.002C327.441 159.602 327.748 159.244 328.099 158.922C328.451 158.603 328.85 158.317 329.289 158.077C329.727 157.838 330.209 157.639 330.737 157.479C331.264 157.32 331.829 157.196 332.443 157.116C333.057 157.037 333.715 157 334.419 157Z" fill="white"/>
<path d="M387.608 165C386.901 165 386.193 165.03 385.487 165.095C384.78 165.159 384.072 165.263 383.366 165.392C382.659 165.522 381.951 165.676 381.245 165.87C380.538 166.064 379.83 166.292 379.124 166.551C378.417 166.809 377.709 167.1 377.003 167.421C376.296 167.744 375.588 168.095 374.882 168.482C374.175 168.87 373.467 169.295 372.761 169.747C372.054 170.199 371.357 170.674 370.652 171.189C369.906 171.704 369.2 172.258 368.554 172.846C367.907 173.437 367.306 174.064 366.759 174.729C366.212 175.394 365.718 176.1 365.271 176.84C364.824 177.579 364.434 178.352 364.087 179.167C363.74 179.981 363.434 180.83 363.173 181.719C362.912 182.607 362.701 183.535 362.529 184.497C362.356 185.46 362.218 186.463 362.129 187.502C362.043 188.54 362 189.62 362 190.732V256.177C362 256.828 362.05 257.444 362.141 258.014C362.231 258.584 362.367 259.112 362.551 259.599C362.735 260.089 362.969 260.541 363.243 260.947C363.518 261.353 363.837 261.718 364.205 262.043C364.572 262.369 364.99 262.645 365.448 262.89C365.906 263.135 366.41 263.347 366.961 263.511C367.512 263.675 368.102 263.788 368.742 263.868C369.384 263.949 370.071 264 370.806 264C371.539 264 372.228 263.949 372.87 263.868C373.512 263.788 374.113 263.675 374.665 263.511C375.216 263.347 375.72 263.135 376.178 262.89C376.636 262.645 377.042 262.369 377.41 262.043C377.777 261.718 378.108 261.353 378.383 260.947C378.657 260.541 378.879 260.089 379.063 259.599C379.247 259.11 379.381 258.584 379.474 258.014C379.565 257.444 379.614 256.828 379.614 256.177V194.944C379.614 194.185 379.662 193.451 379.755 192.738C379.848 192.025 379.991 191.339 380.177 190.675C380.363 190.01 380.601 189.373 380.88 188.755C381.159 188.136 381.479 187.536 381.853 186.966C382.026 186.641 382.232 186.346 382.452 186.06C382.672 185.776 382.913 185.506 383.178 185.261C383.446 185.016 383.732 184.797 384.045 184.594C384.358 184.391 384.693 184.209 385.052 184.045C385.413 183.881 385.805 183.738 386.213 183.616C386.619 183.493 387.05 183.387 387.502 183.307C387.956 183.226 388.432 183.168 388.931 183.129C389.43 183.087 389.954 183.069 390.501 183.069H410.499C411.032 183.069 411.547 183.087 412.035 183.129C412.523 183.17 412.986 183.226 413.43 183.307C413.875 183.387 414.297 183.493 414.696 183.616C415.095 183.738 415.467 183.881 415.821 184.045C416.175 184.209 416.508 184.391 416.817 184.594C417.125 184.797 417.409 185.019 417.672 185.261C417.935 185.506 418.18 185.776 418.398 186.06C418.616 186.343 418.811 186.641 418.983 186.966L418.82 186.812C419.246 187.463 419.625 188.116 419.945 188.78C420.265 189.445 420.528 190.116 420.741 190.795C420.955 191.473 421.116 192.166 421.222 192.858C421.329 193.55 421.386 194.24 421.386 194.944V256.177C421.386 256.828 421.422 257.444 421.515 258.014C421.606 258.584 421.753 259.112 421.937 259.599C422.121 260.089 422.341 260.541 422.617 260.947C422.892 261.353 423.212 261.718 423.579 262.043C423.947 262.369 424.364 262.645 424.822 262.89C425.28 263.135 425.784 263.347 426.335 263.511C426.887 263.675 427.488 263.788 428.13 263.868C428.772 263.949 429.459 264 430.194 264C430.927 264 431.616 263.949 432.258 263.868C432.9 263.788 433.49 263.675 434.039 263.511C434.59 263.347 435.094 263.135 435.552 262.89C436.01 262.645 436.428 262.369 436.795 262.043C437.163 261.718 437.48 261.353 437.757 260.947C438.031 260.541 438.265 260.089 438.449 259.599C438.633 259.11 438.766 258.584 438.859 258.014C438.95 257.444 439 256.828 439 256.177V190.732C439 189.62 438.95 188.538 438.859 187.502C438.769 186.463 438.63 185.46 438.449 184.497C438.27 183.535 438.052 182.607 437.78 181.719C437.51 180.83 437.19 179.981 436.829 179.167C436.468 178.352 436.071 177.581 435.622 176.84C435.173 176.102 434.674 175.394 434.134 174.729C433.594 174.064 433.007 173.434 432.376 172.846C431.746 172.255 431.067 171.704 430.348 171.189C429.615 170.674 428.883 170.197 428.157 169.747C427.431 169.297 426.707 168.87 425.988 168.482C425.269 168.095 424.557 167.744 423.842 167.421C423.128 167.098 422.415 166.807 421.708 166.551C421 166.292 420.299 166.064 419.598 165.87C418.897 165.676 418.205 165.522 417.511 165.392C416.817 165.263 416.123 165.159 415.435 165.095C414.748 165.03 414.065 165 413.385 165H387.608Z" fill="white"/>
<path d="M470.809 133C470.076 133 469.386 133.037 468.744 133.12C468.102 133.2 467.501 133.327 466.95 133.488C466.399 133.652 465.895 133.852 465.437 134.096C464.979 134.341 464.573 134.629 464.205 134.953C463.838 135.278 463.506 135.642 463.232 136.048C462.957 136.453 462.735 136.904 462.551 137.393C462.368 137.881 462.234 138.406 462.141 138.975C462.05 139.544 462 140.145 462 140.797V256.191C462 256.841 462.05 257.456 462.141 258.025C462.231 258.594 462.368 259.121 462.551 259.607C462.735 260.096 462.955 260.547 463.232 260.952C463.506 261.358 463.838 261.722 464.205 262.047C464.573 262.371 464.976 262.648 465.437 262.892C465.895 263.136 466.399 263.348 466.95 263.512C467.501 263.675 468.102 263.788 468.744 263.869C469.386 263.949 470.074 264 470.809 264C471.542 264 472.231 263.949 472.873 263.869C473.515 263.788 474.105 263.675 474.654 263.512C475.205 263.348 475.709 263.136 476.167 262.892C476.626 262.648 477.043 262.371 477.41 262.047C477.778 261.722 478.096 261.358 478.372 260.952C478.647 260.547 478.88 260.096 479.064 259.607C479.248 259.119 479.382 258.594 479.475 258.025C479.566 257.456 479.615 256.841 479.615 256.191V183.209L510.507 183.212C511.04 183.212 511.555 183.23 512.043 183.272C512.53 183.313 512.995 183.368 513.438 183.449C513.882 183.53 514.304 183.636 514.704 183.758C515.103 183.88 515.475 184.023 515.829 184.186C516.183 184.35 516.505 184.532 516.813 184.734C517.122 184.937 517.417 185.158 517.68 185.4C517.943 185.644 518.177 185.914 518.395 186.197C518.612 186.48 518.807 186.777 518.98 187.102L518.828 186.948C519.254 187.598 519.622 188.249 519.942 188.913C520.262 189.576 520.536 190.247 520.752 190.924C520.965 191.601 521.126 192.292 521.233 192.983C521.339 193.674 521.385 194.363 521.385 195.065V256.189C521.385 256.838 521.434 257.453 521.525 258.022C521.616 258.591 521.752 259.119 521.936 259.605C522.12 260.093 522.353 260.545 522.628 260.95C522.902 261.356 523.222 261.72 523.59 262.044C523.957 262.369 524.375 262.646 524.833 262.89C525.291 263.134 525.795 263.346 526.346 263.509C526.897 263.673 527.487 263.786 528.127 263.866C528.769 263.947 529.456 263.998 530.191 263.998C530.924 263.998 531.611 263.947 532.256 263.866C532.898 263.786 533.499 263.673 534.05 263.509C534.601 263.346 535.103 263.134 535.563 262.89C536.021 262.646 536.427 262.369 536.795 262.044C537.162 261.72 537.48 261.356 537.757 260.95C538.031 260.545 538.265 260.093 538.449 259.605C538.632 259.117 538.766 258.591 538.859 258.022C538.95 257.453 539 256.838 539 256.189V190.862C539 189.751 538.961 188.671 538.871 187.637C538.78 186.6 538.642 185.598 538.46 184.638C538.281 183.677 538.049 182.751 537.78 181.864C537.51 180.977 537.201 180.13 536.843 179.316C536.482 178.503 536.074 177.734 535.624 176.995C535.175 176.257 534.676 175.55 534.136 174.887C533.596 174.223 533.02 173.595 532.389 173.007C531.759 172.417 531.083 171.867 530.361 171.353C529.629 170.84 528.896 170.363 528.17 169.914C527.444 169.462 526.72 169.038 526.001 168.651C525.28 168.264 524.558 167.914 523.844 167.592C523.129 167.269 522.428 166.979 521.723 166.723C521.015 166.465 520.3 166.237 519.601 166.044C518.9 165.85 518.209 165.696 517.514 165.567C516.82 165.438 516.126 165.334 515.439 165.27C514.751 165.205 514.08 165.175 513.399 165.175H479.625V140.797C479.625 140.148 479.575 139.544 479.484 138.975C479.393 138.406 479.257 137.879 479.073 137.393C478.89 136.904 478.656 136.453 478.381 136.048C478.107 135.642 477.787 135.278 477.42 134.953C477.052 134.629 476.635 134.341 476.176 134.096C475.718 133.852 475.214 133.652 474.663 133.488C474.112 133.325 473.522 133.2 472.882 133.12C472.24 133.039 471.542 133 470.809 133Z" fill="white"/>
</svg>
