<svg width="251" height="239" viewBox="0 0 251 239" fill="none" xmlns="http://www.w3.org/2000/svg">
<path d="M107.691 75.635C107.452 75.651 107.211 75.6941 106.975 75.7396C106.5 75.8327 106.031 75.9714 105.565 76.185C105.099 76.4009 104.644 76.6826 104.19 77.019C103.735 77.3553 103.294 77.7598 102.851 78.2166L102.603 78.4756C102.462 78.6029 102.321 78.7256 102.18 78.8642C101.771 79.2596 101.405 79.6573 101.064 80.0504L2.44516 181.677C2.00182 182.134 1.60623 182.588 1.28112 183.052C0.958279 183.515 0.69455 183.979 0.49448 184.449C0.294411 184.92 0.151179 185.404 0.0716061 185.881C-0.00796709 186.358 -0.017061 186.84 0.0238624 187.326C0.0647857 187.813 0.167093 188.29 0.328513 188.783C0.492206 189.274 0.715011 189.774 0.999201 190.274C1.27884 190.776 1.62442 191.262 2.03365 191.764C2.44061 192.267 2.90441 192.792 3.43187 193.303C3.96842 193.823 4.51634 194.275 5.04152 194.678C5.5667 195.075 6.07597 195.425 6.59206 195.7C7.10587 195.975 7.61742 196.18 8.11986 196.334C8.62231 196.489 9.12021 196.596 9.61129 196.627C10.1024 196.659 10.5889 196.625 11.0686 196.534C11.5483 196.443 12.0121 196.289 12.4782 196.075C12.9465 195.862 13.4081 195.589 13.865 195.253C14.3198 194.916 14.7722 194.523 15.2155 194.066L108.407 98.0415L171.381 161.595C171.829 162.047 172.277 162.445 172.732 162.781C173.189 163.118 173.65 163.39 174.119 163.604C174.585 163.818 175.062 163.984 175.54 164.074C176.019 164.165 176.506 164.188 176.997 164.156C177.488 164.124 177.974 164.018 178.477 163.863C178.979 163.709 179.491 163.504 180.005 163.229C180.521 162.954 181.03 162.618 181.555 162.22C182.08 161.82 182.628 161.357 183.165 160.834C183.692 160.323 184.156 159.811 184.563 159.307C184.972 158.805 185.316 158.307 185.598 157.805C185.882 157.305 186.105 156.805 186.268 156.314C186.432 155.823 186.543 155.344 186.587 154.857C186.627 154.373 186.607 153.892 186.527 153.412C186.448 152.935 186.305 152.462 186.105 151.992C185.905 151.521 185.641 151.047 185.318 150.583C184.995 150.119 184.615 149.663 184.168 149.208L114.757 79.1369C114.666 79.046 114.593 78.9574 114.498 78.8665C114.455 78.8256 114.411 78.8006 114.368 78.7619L113.839 78.2211C113.391 77.7689 112.943 77.3598 112.488 77.0235C112.033 76.6872 111.579 76.4054 111.113 76.1895C110.646 75.9736 110.178 75.8373 109.703 75.7441C109.278 75.66 108.855 75.626 108.423 75.6396C108.373 75.6373 108.321 75.6419 108.271 75.6396C108.08 75.6328 107.88 75.6214 107.691 75.635Z" fill="#9747FF"/>
<path d="M48.9193 95.6197L46.3877 94.4607C40.7109 91.8618 34.0011 94.3548 31.401 100.029L30.2415 102.559C27.6414 108.234 30.1355 114.94 35.8124 117.539L38.344 118.698C44.0208 121.297 50.7306 118.804 53.3307 113.13L54.4903 110.599C57.0904 104.925 54.5962 98.2186 48.9193 95.6197Z" fill="#9747FF"/>
<path d="M42.211 81.2416L45.1233 83.4374C51.6225 88.3377 60.8654 87.044 65.768 80.5479L67.9544 77.6509C72.857 71.1548 71.5627 61.9161 65.0635 57.0158L62.1512 54.82C55.652 49.9197 46.409 51.2134 41.5065 57.7095L39.3201 60.6065C34.4175 67.1026 35.7118 76.3413 42.211 81.2416Z" fill="#9747FF"/>
<path d="M103.438 54.5591L107.604 51.2823C116.946 43.9345 118.56 30.4085 111.208 21.071L107.93 16.9069C100.579 7.56951 87.0465 5.95658 77.7047 13.3044L73.5386 16.5812C64.1968 23.929 62.5832 37.4551 69.9344 46.7925L73.2127 50.9566C80.564 60.294 94.0963 61.9069 103.438 54.5591Z" fill="#9747FF"/>
<mask id="path-5-outside-1_1233_1821" maskUnits="userSpaceOnUse" x="30" y="124" width="25" height="115" fill="black">
<rect fill="white" x="30" y="124" width="25" height="115"/>
<path d="M42.4186 128C43.1328 128 43.8123 128.037 44.4375 128.116C45.0627 128.196 45.6401 128.32 46.1764 128.479C46.7126 128.639 47.1988 128.838 47.646 129.077C48.0932 129.317 48.5013 129.603 48.8574 129.922C49.2156 130.242 49.5325 130.6 49.7995 131.002C50.0665 131.401 50.2836 131.835 50.4616 132.315C50.6396 132.794 50.7764 133.314 50.8654 133.874C50.9544 134.433 51 135.038 51 135.679V227.311C51 227.953 50.9544 228.558 50.8654 229.117C50.7764 229.676 50.6396 230.197 50.4616 230.676C50.2836 231.156 50.0687 231.601 49.7995 232C49.5325 232.4 49.2156 232.758 48.8574 233.078C48.4992 233.397 48.0932 233.671 47.646 233.911C47.1988 234.151 46.7126 234.361 46.1764 234.521C45.6401 234.683 45.0627 234.792 44.4375 234.872C43.8123 234.95 43.1328 235 42.4186 235C41.7174 235 41.0575 234.95 40.4431 234.872C39.8288 234.795 39.2643 234.687 38.7368 234.521C38.2093 234.359 37.7274 234.151 37.2889 233.911C36.8503 233.671 36.4509 233.4 36.0992 233.078C35.7475 232.758 35.4436 232.4 35.1788 232C34.9161 231.601 34.6925 231.156 34.5167 230.676C34.3408 230.197 34.2127 229.676 34.1237 229.117C34.0369 228.558 34 227.951 34 227.311V135.679C34 135.038 34.0347 134.433 34.1237 133.874C34.2106 133.314 34.3408 132.794 34.5167 132.315C34.6925 131.835 34.9161 131.401 35.1788 131.002C35.4415 130.602 35.7475 130.244 36.0992 129.922C36.4509 129.603 36.8503 129.317 37.2889 129.077C37.7274 128.838 38.2093 128.639 38.7368 128.479C39.2643 128.32 39.8288 128.196 40.4431 128.116C41.0575 128.037 41.7152 128 42.4186 128Z"/>
</mask>
<path d="M42.4186 128C43.1328 128 43.8123 128.037 44.4375 128.116C45.0627 128.196 45.6401 128.32 46.1764 128.479C46.7126 128.639 47.1988 128.838 47.646 129.077C48.0932 129.317 48.5013 129.603 48.8574 129.922C49.2156 130.242 49.5325 130.6 49.7995 131.002C50.0665 131.401 50.2836 131.835 50.4616 132.315C50.6396 132.794 50.7764 133.314 50.8654 133.874C50.9544 134.433 51 135.038 51 135.679V227.311C51 227.953 50.9544 228.558 50.8654 229.117C50.7764 229.676 50.6396 230.197 50.4616 230.676C50.2836 231.156 50.0687 231.601 49.7995 232C49.5325 232.4 49.2156 232.758 48.8574 233.078C48.4992 233.397 48.0932 233.671 47.646 233.911C47.1988 234.151 46.7126 234.361 46.1764 234.521C45.6401 234.683 45.0627 234.792 44.4375 234.872C43.8123 234.95 43.1328 235 42.4186 235C41.7174 235 41.0575 234.95 40.4431 234.872C39.8288 234.795 39.2643 234.687 38.7368 234.521C38.2093 234.359 37.7274 234.151 37.2889 233.911C36.8503 233.671 36.4509 233.4 36.0992 233.078C35.7475 232.758 35.4436 232.4 35.1788 232C34.9161 231.601 34.6925 231.156 34.5167 230.676C34.3408 230.197 34.2127 229.676 34.1237 229.117C34.0369 228.558 34 227.951 34 227.311V135.679C34 135.038 34.0347 134.433 34.1237 133.874C34.2106 133.314 34.3408 132.794 34.5167 132.315C34.6925 131.835 34.9161 131.401 35.1788 131.002C35.4415 130.602 35.7475 130.244 36.0992 129.922C36.4509 129.603 36.8503 129.317 37.2889 129.077C37.7274 128.838 38.2093 128.639 38.7368 128.479C39.2643 128.32 39.8288 128.196 40.4431 128.116C41.0575 128.037 41.7152 128 42.4186 128Z" fill="white"/>
<path d="M42.4186 128C43.1328 128 43.8123 128.037 44.4375 128.116C45.0627 128.196 45.6401 128.32 46.1764 128.479C46.7126 128.639 47.1988 128.838 47.646 129.077C48.0932 129.317 48.5013 129.603 48.8574 129.922C49.2156 130.242 49.5325 130.6 49.7995 131.002C50.0665 131.401 50.2836 131.835 50.4616 132.315C50.6396 132.794 50.7764 133.314 50.8654 133.874C50.9544 134.433 51 135.038 51 135.679V227.311C51 227.953 50.9544 228.558 50.8654 229.117C50.7764 229.676 50.6396 230.197 50.4616 230.676C50.2836 231.156 50.0687 231.601 49.7995 232C49.5325 232.4 49.2156 232.758 48.8574 233.078C48.4992 233.397 48.0932 233.671 47.646 233.911C47.1988 234.151 46.7126 234.361 46.1764 234.521C45.6401 234.683 45.0627 234.792 44.4375 234.872C43.8123 234.95 43.1328 235 42.4186 235C41.7174 235 41.0575 234.95 40.4431 234.872C39.8288 234.795 39.2643 234.687 38.7368 234.521C38.2093 234.359 37.7274 234.151 37.2889 233.911C36.8503 233.671 36.4509 233.4 36.0992 233.078C35.7475 232.758 35.4436 232.4 35.1788 232C34.9161 231.601 34.6925 231.156 34.5167 230.676C34.3408 230.197 34.2127 229.676 34.1237 229.117C34.0369 228.558 34 227.951 34 227.311V135.679C34 135.038 34.0347 134.433 34.1237 133.874C34.2106 133.314 34.3408 132.794 34.5167 132.315C34.6925 131.835 34.9161 131.401 35.1788 131.002C35.4415 130.602 35.7475 130.244 36.0992 129.922C36.4509 129.603 36.8503 129.317 37.2889 129.077C37.7274 128.838 38.2093 128.639 38.7368 128.479C39.2643 128.32 39.8288 128.196 40.4431 128.116C41.0575 128.037 41.7152 128 42.4186 128Z" stroke="#9747FF" stroke-width="8" mask="url(#path-5-outside-1_1233_1821)"/>
<mask id="path-6-outside-2_1233_1821" maskUnits="userSpaceOnUse" x="66" y="132" width="85" height="107" fill="black">
<rect fill="white" x="66" y="132" width="85" height="107"/>
<path d="M95.6084 136C94.9007 136 94.1929 136.03 93.4875 136.095C92.7797 136.159 92.0719 136.263 91.3665 136.392C90.6587 136.522 89.9509 136.676 89.2455 136.87C88.5377 137.064 87.83 137.292 87.1245 137.551C86.4167 137.809 85.709 138.1 85.0035 138.421C84.2957 138.744 83.588 139.095 82.8825 139.482C82.1747 139.87 81.467 140.295 80.7615 140.747C80.0537 141.199 79.3573 141.674 78.6518 142.189C77.9055 142.704 77.2 143.258 76.5535 143.846C75.907 144.437 75.3059 145.064 74.7592 145.729C74.2125 146.394 73.718 147.1 73.2711 147.84C72.8242 148.579 72.434 149.352 72.087 150.167C71.7399 150.981 71.4337 151.83 71.1728 152.719C70.9119 153.607 70.7009 154.535 70.5285 155.497C70.3561 156.46 70.2178 157.463 70.1293 158.502C70.0431 159.54 70 160.62 70 161.732V227.177C70 227.828 70.0499 228.444 70.1406 229.014C70.2314 229.584 70.3675 230.112 70.5512 230.599C70.735 231.089 70.9686 231.541 71.2431 231.947C71.5176 232.353 71.8374 232.718 72.2049 233.043C72.5724 233.369 72.9898 233.645 73.448 233.89C73.9063 234.135 74.4099 234.347 74.9611 234.511C75.5123 234.675 76.1021 234.788 76.7418 234.868C77.3838 234.949 78.0711 235 78.8061 235C79.5388 235 80.2284 234.949 80.8704 234.868C81.5123 234.788 82.1135 234.675 82.6647 234.511C83.2159 234.347 83.7195 234.135 84.1778 233.89C84.636 233.645 85.042 233.369 85.4095 233.043C85.777 232.718 86.1082 232.353 86.3827 231.947C86.6572 231.541 86.8795 231.089 87.0632 230.599C87.247 230.11 87.3808 229.584 87.4738 229.014C87.5646 228.444 87.6145 227.828 87.6145 227.177V165.944C87.6145 165.185 87.6621 164.451 87.7551 163.738C87.8481 163.025 87.991 162.339 88.177 161.675C88.363 161.01 88.6012 160.373 88.8802 159.755C89.1593 159.136 89.4791 158.536 89.8534 157.966C90.0258 157.641 90.2322 157.346 90.4523 157.06C90.6723 156.776 90.9128 156.506 91.1782 156.261C91.4459 156.016 91.7317 155.797 92.0447 155.594C92.3578 155.391 92.6935 155.209 93.0519 155.045C93.4126 154.881 93.805 154.738 94.2134 154.616C94.6194 154.493 95.0504 154.387 95.5018 154.307C95.9555 154.226 96.4319 154.168 96.9309 154.129C97.43 154.087 97.954 154.069 98.5007 154.069H118.499C119.032 154.069 119.547 154.087 120.035 154.129C120.523 154.17 120.986 154.226 121.43 154.307C121.875 154.387 122.297 154.493 122.696 154.616C123.095 154.738 123.467 154.881 123.821 155.045C124.175 155.209 124.508 155.391 124.817 155.594C125.125 155.797 125.409 156.019 125.672 156.261C125.935 156.506 126.18 156.776 126.398 157.06C126.616 157.343 126.811 157.641 126.983 157.966L126.82 157.812C127.246 158.463 127.625 159.116 127.945 159.78C128.265 160.445 128.528 161.116 128.741 161.795C128.955 162.473 129.116 163.166 129.222 163.858C129.329 164.55 129.386 165.24 129.386 165.944V227.177C129.386 227.828 129.422 228.444 129.515 229.014C129.606 229.584 129.753 230.112 129.937 230.599C130.121 231.089 130.341 231.541 130.617 231.947C130.892 232.353 131.212 232.718 131.579 233.043C131.947 233.369 132.364 233.645 132.822 233.89C133.28 234.135 133.784 234.347 134.335 234.511C134.887 234.675 135.488 234.788 136.13 234.868C136.772 234.949 137.459 235 138.194 235C138.927 235 139.616 234.949 140.258 234.868C140.9 234.788 141.49 234.675 142.039 234.511C142.59 234.347 143.094 234.135 143.552 233.89C144.01 233.645 144.428 233.369 144.795 233.043C145.163 232.718 145.48 232.353 145.757 231.947C146.031 231.541 146.265 231.089 146.449 230.599C146.633 230.11 146.766 229.584 146.859 229.014C146.95 228.444 147 227.828 147 227.177V161.732C147 160.62 146.95 159.538 146.859 158.502C146.769 157.463 146.63 156.46 146.449 155.497C146.27 154.535 146.052 153.607 145.78 152.719C145.51 151.83 145.19 150.981 144.829 150.167C144.468 149.352 144.071 148.581 143.622 147.84C143.173 147.102 142.674 146.394 142.134 145.729C141.594 145.064 141.007 144.434 140.376 143.846C139.746 143.255 139.067 142.704 138.348 142.189C137.615 141.674 136.883 141.197 136.157 140.747C135.431 140.297 134.707 139.87 133.988 139.482C133.269 139.095 132.557 138.744 131.842 138.421C131.128 138.098 130.415 137.807 129.708 137.551C129 137.292 128.299 137.064 127.598 136.87C126.897 136.676 126.205 136.522 125.511 136.392C124.817 136.263 124.123 136.159 123.435 136.095C122.748 136.03 122.065 136 121.385 136H95.6084Z"/>
</mask>
<path d="M95.6084 136C94.9007 136 94.1929 136.03 93.4875 136.095C92.7797 136.159 92.0719 136.263 91.3665 136.392C90.6587 136.522 89.9509 136.676 89.2455 136.87C88.5377 137.064 87.83 137.292 87.1245 137.551C86.4167 137.809 85.709 138.1 85.0035 138.421C84.2957 138.744 83.588 139.095 82.8825 139.482C82.1747 139.87 81.467 140.295 80.7615 140.747C80.0537 141.199 79.3573 141.674 78.6518 142.189C77.9055 142.704 77.2 143.258 76.5535 143.846C75.907 144.437 75.3059 145.064 74.7592 145.729C74.2125 146.394 73.718 147.1 73.2711 147.84C72.8242 148.579 72.434 149.352 72.087 150.167C71.7399 150.981 71.4337 151.83 71.1728 152.719C70.9119 153.607 70.7009 154.535 70.5285 155.497C70.3561 156.46 70.2178 157.463 70.1293 158.502C70.0431 159.54 70 160.62 70 161.732V227.177C70 227.828 70.0499 228.444 70.1406 229.014C70.2314 229.584 70.3675 230.112 70.5512 230.599C70.735 231.089 70.9686 231.541 71.2431 231.947C71.5176 232.353 71.8374 232.718 72.2049 233.043C72.5724 233.369 72.9898 233.645 73.448 233.89C73.9063 234.135 74.4099 234.347 74.9611 234.511C75.5123 234.675 76.1021 234.788 76.7418 234.868C77.3838 234.949 78.0711 235 78.8061 235C79.5388 235 80.2284 234.949 80.8704 234.868C81.5123 234.788 82.1135 234.675 82.6647 234.511C83.2159 234.347 83.7195 234.135 84.1778 233.89C84.636 233.645 85.042 233.369 85.4095 233.043C85.777 232.718 86.1082 232.353 86.3827 231.947C86.6572 231.541 86.8795 231.089 87.0632 230.599C87.247 230.11 87.3808 229.584 87.4738 229.014C87.5646 228.444 87.6145 227.828 87.6145 227.177V165.944C87.6145 165.185 87.6621 164.451 87.7551 163.738C87.8481 163.025 87.991 162.339 88.177 161.675C88.363 161.01 88.6012 160.373 88.8802 159.755C89.1593 159.136 89.4791 158.536 89.8534 157.966C90.0258 157.641 90.2322 157.346 90.4523 157.06C90.6723 156.776 90.9128 156.506 91.1782 156.261C91.4459 156.016 91.7317 155.797 92.0447 155.594C92.3578 155.391 92.6935 155.209 93.0519 155.045C93.4126 154.881 93.805 154.738 94.2134 154.616C94.6194 154.493 95.0504 154.387 95.5018 154.307C95.9555 154.226 96.4319 154.168 96.9309 154.129C97.43 154.087 97.954 154.069 98.5007 154.069H118.499C119.032 154.069 119.547 154.087 120.035 154.129C120.523 154.17 120.986 154.226 121.43 154.307C121.875 154.387 122.297 154.493 122.696 154.616C123.095 154.738 123.467 154.881 123.821 155.045C124.175 155.209 124.508 155.391 124.817 155.594C125.125 155.797 125.409 156.019 125.672 156.261C125.935 156.506 126.18 156.776 126.398 157.06C126.616 157.343 126.811 157.641 126.983 157.966L126.82 157.812C127.246 158.463 127.625 159.116 127.945 159.78C128.265 160.445 128.528 161.116 128.741 161.795C128.955 162.473 129.116 163.166 129.222 163.858C129.329 164.55 129.386 165.24 129.386 165.944V227.177C129.386 227.828 129.422 228.444 129.515 229.014C129.606 229.584 129.753 230.112 129.937 230.599C130.121 231.089 130.341 231.541 130.617 231.947C130.892 232.353 131.212 232.718 131.579 233.043C131.947 233.369 132.364 233.645 132.822 233.89C133.28 234.135 133.784 234.347 134.335 234.511C134.887 234.675 135.488 234.788 136.13 234.868C136.772 234.949 137.459 235 138.194 235C138.927 235 139.616 234.949 140.258 234.868C140.9 234.788 141.49 234.675 142.039 234.511C142.59 234.347 143.094 234.135 143.552 233.89C144.01 233.645 144.428 233.369 144.795 233.043C145.163 232.718 145.48 232.353 145.757 231.947C146.031 231.541 146.265 231.089 146.449 230.599C146.633 230.11 146.766 229.584 146.859 229.014C146.95 228.444 147 227.828 147 227.177V161.732C147 160.62 146.95 159.538 146.859 158.502C146.769 157.463 146.63 156.46 146.449 155.497C146.27 154.535 146.052 153.607 145.78 152.719C145.51 151.83 145.19 150.981 144.829 150.167C144.468 149.352 144.071 148.581 143.622 147.84C143.173 147.102 142.674 146.394 142.134 145.729C141.594 145.064 141.007 144.434 140.376 143.846C139.746 143.255 139.067 142.704 138.348 142.189C137.615 141.674 136.883 141.197 136.157 140.747C135.431 140.297 134.707 139.87 133.988 139.482C133.269 139.095 132.557 138.744 131.842 138.421C131.128 138.098 130.415 137.807 129.708 137.551C129 137.292 128.299 137.064 127.598 136.87C126.897 136.676 126.205 136.522 125.511 136.392C124.817 136.263 124.123 136.159 123.435 136.095C122.748 136.03 122.065 136 121.385 136H95.6084Z" fill="white"/>
<path d="M95.6084 136C94.9007 136 94.1929 136.03 93.4875 136.095C92.7797 136.159 92.0719 136.263 91.3665 136.392C90.6587 136.522 89.9509 136.676 89.2455 136.87C88.5377 137.064 87.83 137.292 87.1245 137.551C86.4167 137.809 85.709 138.1 85.0035 138.421C84.2957 138.744 83.588 139.095 82.8825 139.482C82.1747 139.87 81.467 140.295 80.7615 140.747C80.0537 141.199 79.3573 141.674 78.6518 142.189C77.9055 142.704 77.2 143.258 76.5535 143.846C75.907 144.437 75.3059 145.064 74.7592 145.729C74.2125 146.394 73.718 147.1 73.2711 147.84C72.8242 148.579 72.434 149.352 72.087 150.167C71.7399 150.981 71.4337 151.83 71.1728 152.719C70.9119 153.607 70.7009 154.535 70.5285 155.497C70.3561 156.46 70.2178 157.463 70.1293 158.502C70.0431 159.54 70 160.62 70 161.732V227.177C70 227.828 70.0499 228.444 70.1406 229.014C70.2314 229.584 70.3675 230.112 70.5512 230.599C70.735 231.089 70.9686 231.541 71.2431 231.947C71.5176 232.353 71.8374 232.718 72.2049 233.043C72.5724 233.369 72.9898 233.645 73.448 233.89C73.9063 234.135 74.4099 234.347 74.9611 234.511C75.5123 234.675 76.1021 234.788 76.7418 234.868C77.3838 234.949 78.0711 235 78.8061 235C79.5388 235 80.2284 234.949 80.8704 234.868C81.5123 234.788 82.1135 234.675 82.6647 234.511C83.2159 234.347 83.7195 234.135 84.1778 233.89C84.636 233.645 85.042 233.369 85.4095 233.043C85.777 232.718 86.1082 232.353 86.3827 231.947C86.6572 231.541 86.8795 231.089 87.0632 230.599C87.247 230.11 87.3808 229.584 87.4738 229.014C87.5646 228.444 87.6145 227.828 87.6145 227.177V165.944C87.6145 165.185 87.6621 164.451 87.7551 163.738C87.8481 163.025 87.991 162.339 88.177 161.675C88.363 161.01 88.6012 160.373 88.8802 159.755C89.1593 159.136 89.4791 158.536 89.8534 157.966C90.0258 157.641 90.2322 157.346 90.4523 157.06C90.6723 156.776 90.9128 156.506 91.1782 156.261C91.4459 156.016 91.7317 155.797 92.0447 155.594C92.3578 155.391 92.6935 155.209 93.0519 155.045C93.4126 154.881 93.805 154.738 94.2134 154.616C94.6194 154.493 95.0504 154.387 95.5018 154.307C95.9555 154.226 96.4319 154.168 96.9309 154.129C97.43 154.087 97.954 154.069 98.5007 154.069H118.499C119.032 154.069 119.547 154.087 120.035 154.129C120.523 154.17 120.986 154.226 121.43 154.307C121.875 154.387 122.297 154.493 122.696 154.616C123.095 154.738 123.467 154.881 123.821 155.045C124.175 155.209 124.508 155.391 124.817 155.594C125.125 155.797 125.409 156.019 125.672 156.261C125.935 156.506 126.18 156.776 126.398 157.06C126.616 157.343 126.811 157.641 126.983 157.966L126.82 157.812C127.246 158.463 127.625 159.116 127.945 159.78C128.265 160.445 128.528 161.116 128.741 161.795C128.955 162.473 129.116 163.166 129.222 163.858C129.329 164.55 129.386 165.24 129.386 165.944V227.177C129.386 227.828 129.422 228.444 129.515 229.014C129.606 229.584 129.753 230.112 129.937 230.599C130.121 231.089 130.341 231.541 130.617 231.947C130.892 232.353 131.212 232.718 131.579 233.043C131.947 233.369 132.364 233.645 132.822 233.89C133.28 234.135 133.784 234.347 134.335 234.511C134.887 234.675 135.488 234.788 136.13 234.868C136.772 234.949 137.459 235 138.194 235C138.927 235 139.616 234.949 140.258 234.868C140.9 234.788 141.49 234.675 142.039 234.511C142.59 234.347 143.094 234.135 143.552 233.89C144.01 233.645 144.428 233.369 144.795 233.043C145.163 232.718 145.48 232.353 145.757 231.947C146.031 231.541 146.265 231.089 146.449 230.599C146.633 230.11 146.766 229.584 146.859 229.014C146.95 228.444 147 227.828 147 227.177V161.732C147 160.62 146.95 159.538 146.859 158.502C146.769 157.463 146.63 156.46 146.449 155.497C146.27 154.535 146.052 153.607 145.78 152.719C145.51 151.83 145.19 150.981 144.829 150.167C144.468 149.352 144.071 148.581 143.622 147.84C143.173 147.102 142.674 146.394 142.134 145.729C141.594 145.064 141.007 144.434 140.376 143.846C139.746 143.255 139.067 142.704 138.348 142.189C137.615 141.674 136.883 141.197 136.157 140.747C135.431 140.297 134.707 139.87 133.988 139.482C133.269 139.095 132.557 138.744 131.842 138.421C131.128 138.098 130.415 137.807 129.708 137.551C129 137.292 128.299 137.064 127.598 136.87C126.897 136.676 126.205 136.522 125.511 136.392C124.817 136.263 124.123 136.159 123.435 136.095C122.748 136.03 122.065 136 121.385 136H95.6084Z" stroke="#9747FF" stroke-width="8" mask="url(#path-6-outside-2_1233_1821)"/>
<mask id="path-7-outside-3_1233_1821" maskUnits="userSpaceOnUse" x="166" y="100" width="85" height="139" fill="black">
<rect fill="white" x="166" y="100" width="85" height="139"/>
<path d="M178.809 104C178.076 104 177.386 104.037 176.744 104.12C176.102 104.2 175.501 104.327 174.95 104.488C174.399 104.652 173.895 104.852 173.437 105.096C172.979 105.341 172.573 105.629 172.205 105.953C171.838 106.278 171.506 106.642 171.232 107.048C170.957 107.453 170.735 107.904 170.551 108.393C170.368 108.881 170.234 109.406 170.141 109.975C170.05 110.544 170 111.145 170 111.797V227.191C170 227.841 170.05 228.456 170.141 229.025C170.231 229.594 170.368 230.121 170.551 230.607C170.735 231.096 170.955 231.547 171.232 231.952C171.506 232.358 171.838 232.722 172.205 233.047C172.573 233.371 172.976 233.648 173.437 233.892C173.895 234.136 174.399 234.348 174.95 234.512C175.501 234.675 176.102 234.788 176.744 234.869C177.386 234.949 178.074 235 178.809 235C179.542 235 180.231 234.949 180.873 234.869C181.515 234.788 182.105 234.675 182.654 234.512C183.205 234.348 183.709 234.136 184.167 233.892C184.626 233.648 185.043 233.371 185.41 233.047C185.778 232.722 186.096 232.358 186.372 231.952C186.647 231.547 186.88 231.096 187.064 230.607C187.248 230.119 187.382 229.594 187.475 229.025C187.566 228.456 187.615 227.841 187.615 227.191V154.209L218.507 154.212C219.04 154.212 219.555 154.23 220.043 154.272C220.53 154.313 220.995 154.368 221.438 154.449C221.882 154.53 222.304 154.636 222.704 154.758C223.103 154.88 223.475 155.023 223.829 155.186C224.183 155.35 224.505 155.532 224.813 155.734C225.122 155.937 225.417 156.158 225.68 156.4C225.943 156.644 226.177 156.914 226.395 157.197C226.612 157.48 226.807 157.777 226.98 158.102L226.828 157.948C227.254 158.598 227.622 159.249 227.942 159.913C228.262 160.576 228.536 161.247 228.752 161.924C228.965 162.601 229.126 163.292 229.233 163.983C229.339 164.674 229.385 165.363 229.385 166.065V227.189C229.385 227.838 229.434 228.453 229.525 229.022C229.616 229.591 229.752 230.119 229.936 230.605C230.12 231.093 230.353 231.545 230.628 231.95C230.902 232.356 231.222 232.72 231.59 233.044C231.957 233.369 232.375 233.646 232.833 233.89C233.291 234.134 233.795 234.346 234.346 234.509C234.897 234.673 235.487 234.786 236.127 234.866C236.769 234.947 237.456 234.998 238.191 234.998C238.924 234.998 239.611 234.947 240.256 234.866C240.898 234.786 241.499 234.673 242.05 234.509C242.601 234.346 243.103 234.134 243.563 233.89C244.021 233.646 244.427 233.369 244.795 233.044C245.162 232.72 245.48 232.356 245.757 231.95C246.031 231.545 246.265 231.093 246.449 230.605C246.632 230.117 246.766 229.591 246.859 229.022C246.95 228.453 247 227.838 247 227.189V161.862C247 160.751 246.961 159.671 246.871 158.637C246.78 157.6 246.642 156.598 246.46 155.638C246.281 154.677 246.049 153.751 245.78 152.864C245.51 151.977 245.201 151.13 244.843 150.316C244.482 149.503 244.074 148.734 243.624 147.995C243.175 147.257 242.676 146.55 242.136 145.887C241.596 145.223 241.02 144.595 240.389 144.007C239.759 143.417 239.083 142.867 238.361 142.353C237.629 141.84 236.896 141.363 236.17 140.914C235.444 140.462 234.72 140.038 234.001 139.651C233.28 139.264 232.558 138.914 231.844 138.592C231.129 138.269 230.428 137.979 229.723 137.723C229.015 137.465 228.3 137.237 227.601 137.044C226.9 136.85 226.209 136.696 225.514 136.567C224.82 136.438 224.126 136.334 223.439 136.27C222.751 136.205 222.08 136.175 221.399 136.175H187.625V111.797C187.625 111.148 187.575 110.544 187.484 109.975C187.393 109.406 187.257 108.879 187.073 108.393C186.89 107.904 186.656 107.453 186.381 107.048C186.107 106.642 185.787 106.278 185.42 105.953C185.052 105.629 184.635 105.341 184.176 105.096C183.718 104.852 183.214 104.652 182.663 104.488C182.112 104.325 181.522 104.2 180.882 104.12C180.24 104.039 179.542 104 178.809 104Z"/>
</mask>
<path d="M178.809 104C178.076 104 177.386 104.037 176.744 104.12C176.102 104.2 175.501 104.327 174.95 104.488C174.399 104.652 173.895 104.852 173.437 105.096C172.979 105.341 172.573 105.629 172.205 105.953C171.838 106.278 171.506 106.642 171.232 107.048C170.957 107.453 170.735 107.904 170.551 108.393C170.368 108.881 170.234 109.406 170.141 109.975C170.05 110.544 170 111.145 170 111.797V227.191C170 227.841 170.05 228.456 170.141 229.025C170.231 229.594 170.368 230.121 170.551 230.607C170.735 231.096 170.955 231.547 171.232 231.952C171.506 232.358 171.838 232.722 172.205 233.047C172.573 233.371 172.976 233.648 173.437 233.892C173.895 234.136 174.399 234.348 174.95 234.512C175.501 234.675 176.102 234.788 176.744 234.869C177.386 234.949 178.074 235 178.809 235C179.542 235 180.231 234.949 180.873 234.869C181.515 234.788 182.105 234.675 182.654 234.512C183.205 234.348 183.709 234.136 184.167 233.892C184.626 233.648 185.043 233.371 185.41 233.047C185.778 232.722 186.096 232.358 186.372 231.952C186.647 231.547 186.88 231.096 187.064 230.607C187.248 230.119 187.382 229.594 187.475 229.025C187.566 228.456 187.615 227.841 187.615 227.191V154.209L218.507 154.212C219.04 154.212 219.555 154.23 220.043 154.272C220.53 154.313 220.995 154.368 221.438 154.449C221.882 154.53 222.304 154.636 222.704 154.758C223.103 154.88 223.475 155.023 223.829 155.186C224.183 155.35 224.505 155.532 224.813 155.734C225.122 155.937 225.417 156.158 225.68 156.4C225.943 156.644 226.177 156.914 226.395 157.197C226.612 157.48 226.807 157.777 226.98 158.102L226.828 157.948C227.254 158.598 227.622 159.249 227.942 159.913C228.262 160.576 228.536 161.247 228.752 161.924C228.965 162.601 229.126 163.292 229.233 163.983C229.339 164.674 229.385 165.363 229.385 166.065V227.189C229.385 227.838 229.434 228.453 229.525 229.022C229.616 229.591 229.752 230.119 229.936 230.605C230.12 231.093 230.353 231.545 230.628 231.95C230.902 232.356 231.222 232.72 231.59 233.044C231.957 233.369 232.375 233.646 232.833 233.89C233.291 234.134 233.795 234.346 234.346 234.509C234.897 234.673 235.487 234.786 236.127 234.866C236.769 234.947 237.456 234.998 238.191 234.998C238.924 234.998 239.611 234.947 240.256 234.866C240.898 234.786 241.499 234.673 242.05 234.509C242.601 234.346 243.103 234.134 243.563 233.89C244.021 233.646 244.427 233.369 244.795 233.044C245.162 232.72 245.48 232.356 245.757 231.95C246.031 231.545 246.265 231.093 246.449 230.605C246.632 230.117 246.766 229.591 246.859 229.022C246.95 228.453 247 227.838 247 227.189V161.862C247 160.751 246.961 159.671 246.871 158.637C246.78 157.6 246.642 156.598 246.46 155.638C246.281 154.677 246.049 153.751 245.78 152.864C245.51 151.977 245.201 151.13 244.843 150.316C244.482 149.503 244.074 148.734 243.624 147.995C243.175 147.257 242.676 146.55 242.136 145.887C241.596 145.223 241.02 144.595 240.389 144.007C239.759 143.417 239.083 142.867 238.361 142.353C237.629 141.84 236.896 141.363 236.17 140.914C235.444 140.462 234.72 140.038 234.001 139.651C233.28 139.264 232.558 138.914 231.844 138.592C231.129 138.269 230.428 137.979 229.723 137.723C229.015 137.465 228.3 137.237 227.601 137.044C226.9 136.85 226.209 136.696 225.514 136.567C224.82 136.438 224.126 136.334 223.439 136.27C222.751 136.205 222.08 136.175 221.399 136.175H187.625V111.797C187.625 111.148 187.575 110.544 187.484 109.975C187.393 109.406 187.257 108.879 187.073 108.393C186.89 107.904 186.656 107.453 186.381 107.048C186.107 106.642 185.787 106.278 185.42 105.953C185.052 105.629 184.635 105.341 184.176 105.096C183.718 104.852 183.214 104.652 182.663 104.488C182.112 104.325 181.522 104.2 180.882 104.12C180.24 104.039 179.542 104 178.809 104Z" fill="white"/>
<path d="M178.809 104C178.076 104 177.386 104.037 176.744 104.12C176.102 104.2 175.501 104.327 174.95 104.488C174.399 104.652 173.895 104.852 173.437 105.096C172.979 105.341 172.573 105.629 172.205 105.953C171.838 106.278 171.506 106.642 171.232 107.048C170.957 107.453 170.735 107.904 170.551 108.393C170.368 108.881 170.234 109.406 170.141 109.975C170.05 110.544 170 111.145 170 111.797V227.191C170 227.841 170.05 228.456 170.141 229.025C170.231 229.594 170.368 230.121 170.551 230.607C170.735 231.096 170.955 231.547 171.232 231.952C171.506 232.358 171.838 232.722 172.205 233.047C172.573 233.371 172.976 233.648 173.437 233.892C173.895 234.136 174.399 234.348 174.95 234.512C175.501 234.675 176.102 234.788 176.744 234.869C177.386 234.949 178.074 235 178.809 235C179.542 235 180.231 234.949 180.873 234.869C181.515 234.788 182.105 234.675 182.654 234.512C183.205 234.348 183.709 234.136 184.167 233.892C184.626 233.648 185.043 233.371 185.41 233.047C185.778 232.722 186.096 232.358 186.372 231.952C186.647 231.547 186.88 231.096 187.064 230.607C187.248 230.119 187.382 229.594 187.475 229.025C187.566 228.456 187.615 227.841 187.615 227.191V154.209L218.507 154.212C219.04 154.212 219.555 154.23 220.043 154.272C220.53 154.313 220.995 154.368 221.438 154.449C221.882 154.53 222.304 154.636 222.704 154.758C223.103 154.88 223.475 155.023 223.829 155.186C224.183 155.35 224.505 155.532 224.813 155.734C225.122 155.937 225.417 156.158 225.68 156.4C225.943 156.644 226.177 156.914 226.395 157.197C226.612 157.48 226.807 157.777 226.98 158.102L226.828 157.948C227.254 158.598 227.622 159.249 227.942 159.913C228.262 160.576 228.536 161.247 228.752 161.924C228.965 162.601 229.126 163.292 229.233 163.983C229.339 164.674 229.385 165.363 229.385 166.065V227.189C229.385 227.838 229.434 228.453 229.525 229.022C229.616 229.591 229.752 230.119 229.936 230.605C230.12 231.093 230.353 231.545 230.628 231.95C230.902 232.356 231.222 232.72 231.59 233.044C231.957 233.369 232.375 233.646 232.833 233.89C233.291 234.134 233.795 234.346 234.346 234.509C234.897 234.673 235.487 234.786 236.127 234.866C236.769 234.947 237.456 234.998 238.191 234.998C238.924 234.998 239.611 234.947 240.256 234.866C240.898 234.786 241.499 234.673 242.05 234.509C242.601 234.346 243.103 234.134 243.563 233.89C244.021 233.646 244.427 233.369 244.795 233.044C245.162 232.72 245.48 232.356 245.757 231.95C246.031 231.545 246.265 231.093 246.449 230.605C246.632 230.117 246.766 229.591 246.859 229.022C246.95 228.453 247 227.838 247 227.189V161.862C247 160.751 246.961 159.671 246.871 158.637C246.78 157.6 246.642 156.598 246.46 155.638C246.281 154.677 246.049 153.751 245.78 152.864C245.51 151.977 245.201 151.13 244.843 150.316C244.482 149.503 244.074 148.734 243.624 147.995C243.175 147.257 242.676 146.55 242.136 145.887C241.596 145.223 241.02 144.595 240.389 144.007C239.759 143.417 239.083 142.867 238.361 142.353C237.629 141.84 236.896 141.363 236.17 140.914C235.444 140.462 234.72 140.038 234.001 139.651C233.28 139.264 232.558 138.914 231.844 138.592C231.129 138.269 230.428 137.979 229.723 137.723C229.015 137.465 228.3 137.237 227.601 137.044C226.9 136.85 226.209 136.696 225.514 136.567C224.82 136.438 224.126 136.334 223.439 136.27C222.751 136.205 222.08 136.175 221.399 136.175H187.625V111.797C187.625 111.148 187.575 110.544 187.484 109.975C187.393 109.406 187.257 108.879 187.073 108.393C186.89 107.904 186.656 107.453 186.381 107.048C186.107 106.642 185.787 106.278 185.42 105.953C185.052 105.629 184.635 105.341 184.176 105.096C183.718 104.852 183.214 104.652 182.663 104.488C182.112 104.325 181.522 104.2 180.882 104.12C180.24 104.039 179.542 104 178.809 104Z" stroke="#9747FF" stroke-width="8" mask="url(#path-7-outside-3_1233_1821)"/>
</svg>
